<?xml version="1.0" standalone="no"?>
<!DOCTYPE svg PUBLIC "-//W3C//DTD SVG 20010904//EN"
 "http://www.w3.org/TR/2001/REC-SVG-20010904/DTD/svg10.dtd">
<svg version="1.0" xmlns="http://www.w3.org/2000/svg"
 width="500.000000pt" height="500.000000pt" viewBox="0 0 500.000000 500.000000"
 preserveAspectRatio="xMidYMid meet">

<g transform="translate(0.000000,500.000000) scale(0.100000,-0.100000)"
fill="#000000" stroke="none">
<path d="M0 2500 l0 -2500 2500 0 2500 0 0 2500 0 2500 -2500 0 -2500 0 0
-2500z m4500 0 l0 -2000 -2000 0 -2000 0 0 2000 0 2000 2000 0 2000 0 0 -2000z"/>
<path d="M620 2500 l0 -1880 1880 0 1880 0 0 1880 0 1880 -1880 0 -1880 0 0
-1880z m416 -189 c71 -32 79 -62 79 -291 0 -215 -5 -237 -68 -284 -40 -29
-167 -30 -215 -1 -62 37 -72 77 -72 286 0 172 2 188 23 229 14 29 34 51 57 62
47 24 143 23 196 -1z m323 -133 l61 -143 0 143 0 142 55 0 55 0 0 -301 0 -300
-47 3 -46 3 -56 145 -56 144 -3 -147 -3 -147 -59 0 -60 0 0 300 0 300 49 0 49
0 61 -142z m370 70 c36 -121 35 -121 61 -20 l24 92 58 0 c32 0 58 -4 58 -8 0
-4 -25 -87 -55 -183 -53 -170 -55 -177 -55 -291 l0 -118 -60 0 -60 0 0 118 c0
115 -1 120 -59 300 l-59 182 63 0 63 0 21 -72z m366 35 c9 -21 24 -56 34 -78
l18 -40 25 75 25 75 56 3 56 3 -50 -148 c-27 -81 -49 -155 -49 -164 0 -9 25
-76 55 -149 30 -73 55 -134 55 -136 0 -2 -28 -4 -62 -4 l-63 0 -34 86 c-18 47
-37 82 -41 77 -4 -4 -19 -43 -34 -85 l-28 -78 -54 0 c-30 0 -54 2 -54 4 0 2
25 72 55 155 30 83 55 157 55 164 0 8 -22 69 -50 137 -27 68 -50 127 -50 132
0 4 27 8 60 8 60 0 60 0 75 -37z m162 -679 c62 -47 68 -70 68 -279 0 -216 -9
-252 -75 -290 -46 -26 -160 -28 -207 -2 -60 32 -76 82 -81 247 -8 284 31 355
195 348 54 -3 79 -9 100 -24z m1843 8 c44 -21 80 -89 80 -149 l0 -43 -65 0
-65 0 0 44 c0 45 -18 76 -45 76 -7 0 -21 -7 -29 -16 -13 -13 -16 -45 -16 -195
0 -105 4 -188 10 -200 14 -26 66 -26 80 0 5 11 10 42 10 70 0 48 -2 51 -25 51
-22 0 -25 4 -25 40 l0 40 85 0 85 0 0 -155 0 -155 -45 0 c-38 0 -45 3 -45 20
0 18 -2 18 -37 -6 -31 -21 -46 -25 -86 -21 -59 5 -95 30 -122 83 -17 33 -21
63 -23 194 -5 220 15 292 92 326 45 19 144 18 186 -4z m-3044 -11 c50 -23 74
-68 74 -140 0 -61 -19 -112 -50 -134 l-21 -15 37 -133 c20 -74 39 -140 41
-146 4 -10 -13 -13 -65 -13 l-70 0 -33 135 c-27 111 -36 135 -51 135 -16 0
-18 -12 -18 -135 l0 -135 -70 0 -70 0 0 300 0 300 128 0 c102 0 135 -4 168
-19z m424 -26 l0 -45 -65 0 -65 0 0 -75 0 -75 50 0 50 0 0 -45 0 -45 -50 0
-50 0 0 -90 0 -90 70 0 70 0 0 -45 0 -45 -140 0 -140 0 0 300 0 300 135 0 135
0 0 -45z m357 25 c46 -28 66 -73 66 -150 1 -117 -40 -162 -153 -168 l-70 -4 0
-129 0 -129 -70 0 -70 0 0 300 0 300 133 0 c113 0 137 -3 164 -20z m860 1 c59
-27 76 -65 71 -157 -3 -66 -7 -77 -35 -106 l-31 -33 39 -135 c21 -74 38 -138
39 -142 0 -5 -31 -8 -68 -8 l-68 0 -28 118 c-15 64 -30 125 -33 135 -2 9 -13
17 -24 17 -18 0 -19 -8 -19 -135 l0 -135 -65 0 -65 0 0 300 0 300 123 0 c98 0
130 -4 164 -19z m433 -31 l0 -50 -45 0 -45 0 0 -250 0 -250 -65 0 -65 0 0 250
0 250 -45 0 -45 0 0 50 0 50 155 0 155 0 0 -50z m190 -250 l0 -300 -65 0 -65
0 0 300 0 300 65 0 65 0 0 -300z m249 158 l61 -143 0 143 0 142 55 0 55 0 0
-301 0 -300 -47 3 -46 3 -56 145 -56 144 -3 -147 -3 -147 -59 0 -60 0 0 300 0
300 49 0 49 0 61 -142z"/>
<path d="M909 2223 c-10 -12 -15 -61 -17 -187 -4 -196 2 -226 47 -226 17 0 31
6 35 16 12 31 7 389 -6 402 -17 17 -43 15 -59 -5z"/>
<path d="M2116 1524 c-13 -13 -16 -45 -16 -195 0 -105 4 -188 10 -200 12 -21
50 -25 68 -7 8 8 12 67 12 199 0 157 -3 190 -16 203 -20 20 -38 20 -58 0z"/>
<path d="M900 1450 l0 -80 33 0 c53 0 72 20 72 78 0 62 -16 82 -66 82 l-39 0
0 -80z"/>
<path d="M1680 1450 l0 -80 34 0 c48 0 66 22 66 80 0 58 -18 80 -66 80 l-34 0
0 -80z"/>
<path d="M2540 1450 l0 -80 39 0 c48 0 71 26 71 80 0 54 -23 80 -71 80 l-39 0
0 -80z"/>
</g>
</svg>
